<mxfile host="65bd71144e">
    <diagram id="CGz5gvUMxi6If3MVP1VV" name="image">
        <mxGraphModel dx="-1897" dy="2465" grid="1" gridSize="10" guides="1" tooltips="1" connect="1" arrows="1" fold="1" page="1" pageScale="1" pageWidth="827" pageHeight="1169" math="0" shadow="0">
            <root>
                <mxCell id="0"/>
                <mxCell id="1" parent="0"/>
                <mxCell id="mNiAzSfXenX0VxuWbp-_-2" value="" style="rounded=0;whiteSpace=wrap;html=1;fillColor=#dae8fc;strokeColor=#6c8ebf;shadow=0;" parent="1" vertex="1">
                    <mxGeometry x="2630" y="-930" width="580" height="180" as="geometry"/>
                </mxCell>
                <mxCell id="mNiAzSfXenX0VxuWbp-_-18" value="CSRF&lt;br&gt;Middleware" style="rounded=1;whiteSpace=wrap;html=1;fontSize=14;strokeColor=#b85450;fillColor=#f8cecc;" parent="1" vertex="1">
                    <mxGeometry x="2810" y="-920" width="100" height="160" as="geometry"/>
                </mxCell>
                <mxCell id="3" value="Handler&lt;br&gt;" style="rounded=1;whiteSpace=wrap;html=1;fontSize=14;strokeColor=#d6b656;fillColor=#fff2cc;" parent="1" vertex="1">
                    <mxGeometry x="3120" y="-920" width="80" height="160" as="geometry"/>
                </mxCell>
                <mxCell id="5" value="middleware" style="rounded=1;whiteSpace=wrap;html=1;fontSize=14;strokeColor=#6c8ebf;fillColor=default;" parent="1" vertex="1">
                    <mxGeometry x="2640" y="-920" width="80" height="160" as="geometry"/>
                </mxCell>
                <mxCell id="8" value="CORS&lt;br&gt;Middleware" style="rounded=1;whiteSpace=wrap;html=1;fontSize=14;strokeColor=#6c8ebf;fillColor=default;" parent="1" vertex="1">
                    <mxGeometry x="2730" y="-920" width="70" height="160" as="geometry"/>
                </mxCell>
                <mxCell id="9" value="middleware" style="rounded=1;whiteSpace=wrap;html=1;fontSize=14;strokeColor=#6c8ebf;fillColor=default;" parent="1" vertex="1">
                    <mxGeometry x="3000" y="-920" width="80" height="160" as="geometry"/>
                </mxCell>
                <mxCell id="10" value="..." style="rounded=1;whiteSpace=wrap;html=1;fontSize=14;strokeColor=#6c8ebf;fillColor=default;" parent="1" vertex="1">
                    <mxGeometry x="2960" y="-920" width="30" height="160" as="geometry"/>
                </mxCell>
                <mxCell id="11" value="..." style="rounded=1;whiteSpace=wrap;html=1;fontSize=14;strokeColor=#6c8ebf;fillColor=default;" parent="1" vertex="1">
                    <mxGeometry x="2920" y="-920" width="30" height="160" as="geometry"/>
                </mxCell>
                <mxCell id="16" value="" style="shape=flexArrow;endArrow=classic;html=1;" parent="1" edge="1">
                    <mxGeometry width="50" height="50" relative="1" as="geometry">
                        <mxPoint x="2560" y="-870" as="sourcePoint"/>
                        <mxPoint x="2620" y="-870" as="targetPoint"/>
                    </mxGeometry>
                </mxCell>
                <mxCell id="17" value="Request" style="text;html=1;strokeColor=none;fillColor=none;align=center;verticalAlign=middle;whiteSpace=wrap;rounded=0;" parent="1" vertex="1">
                    <mxGeometry x="2560" y="-910" width="60" height="20" as="geometry"/>
                </mxCell>
                <mxCell id="18" value="" style="shape=flexArrow;endArrow=classic;html=1;" parent="1" edge="1">
                    <mxGeometry width="50" height="50" relative="1" as="geometry">
                        <mxPoint x="2620" y="-810" as="sourcePoint"/>
                        <mxPoint x="2560" y="-810" as="targetPoint"/>
                    </mxGeometry>
                </mxCell>
                <mxCell id="19" value="Response" style="text;html=1;strokeColor=none;fillColor=none;align=center;verticalAlign=middle;whiteSpace=wrap;rounded=0;" parent="1" vertex="1">
                    <mxGeometry x="2560" y="-790" width="60" height="20" as="geometry"/>
                </mxCell>
                <mxCell id="24" value="" style="shape=flexArrow;endArrow=classic;html=1;fillColor=#f5f5f5;strokeColor=#666666;entryX=0;entryY=0.5;entryDx=0;entryDy=0;entryPerimeter=0;" parent="1" edge="1">
                    <mxGeometry width="50" height="50" relative="1" as="geometry">
                        <mxPoint x="2690" y="-900.24" as="sourcePoint"/>
                        <mxPoint x="2820" y="-900.24" as="targetPoint"/>
                    </mxGeometry>
                </mxCell>
                <mxCell id="25" value="" style="shape=flexArrow;endArrow=classic;html=1;fillColor=#f5f5f5;strokeColor=#666666;" parent="1" edge="1">
                    <mxGeometry width="50" height="50" relative="1" as="geometry">
                        <mxPoint x="3160" y="-790" as="sourcePoint"/>
                        <mxPoint x="2700" y="-790" as="targetPoint"/>
                    </mxGeometry>
                </mxCell>
                <mxCell id="12" value="Check&lt;br&gt;header." style="rounded=1;whiteSpace=wrap;html=1;fontSize=12;strokeColor=#b85450;fillColor=default;" parent="1" vertex="1">
                    <mxGeometry x="2820" y="-910" width="80" height="40" as="geometry"/>
                </mxCell>
                <mxCell id="43" value="Allowed" style="shape=flexArrow;endArrow=classic;html=1;fillColor=#d5e8d4;strokeColor=#82b366;entryX=0.5;entryY=0.188;entryDx=0;entryDy=0;entryPerimeter=0;labelBackgroundColor=none;" edge="1" parent="1" target="3">
                    <mxGeometry width="50" height="50" relative="1" as="geometry">
                        <mxPoint x="2900" y="-890" as="sourcePoint"/>
                        <mxPoint x="3030" y="-890" as="targetPoint"/>
                    </mxGeometry>
                </mxCell>
                <mxCell id="44" value="Forbidden" style="shape=flexArrow;endArrow=classic;html=1;fillColor=#f8cecc;strokeColor=#b85450;labelBackgroundColor=none;" edge="1" parent="1">
                    <mxGeometry width="50" height="50" relative="1" as="geometry">
                        <mxPoint x="2820" y="-880" as="sourcePoint"/>
                        <mxPoint x="2700" y="-880" as="targetPoint"/>
                    </mxGeometry>
                </mxCell>
                <mxCell id="46" value="Check if custom header exists or not." style="text;html=1;strokeColor=none;fillColor=none;align=center;verticalAlign=middle;whiteSpace=wrap;rounded=0;" vertex="1" parent="1">
                    <mxGeometry x="2800" y="-970" width="120" height="40" as="geometry"/>
                </mxCell>
            </root>
        </mxGraphModel>
    </diagram>
</mxfile>